<?xml version="1.0" encoding="UTF-8" standalone="no"?>
<svg
   xmlns:dc="http://purl.org/dc/elements/1.1/"
   xmlns:cc="http://creativecommons.org/ns#"
   xmlns:rdf="http://www.w3.org/1999/02/22-rdf-syntax-ns#"
   xmlns:svg="http://www.w3.org/2000/svg"
   xmlns="http://www.w3.org/2000/svg"
   xmlns:sodipodi="http://sodipodi.sourceforge.net/DTD/sodipodi-0.dtd"
   xmlns:inkscape="http://www.inkscape.org/namespaces/inkscape"
   version="1.1"
   x="0px"
   y="0px"
   width="100px"
   height="100px"
   viewBox="0 0 100 100"
   enable-background="new 0 0 100 100"
   xml:space="preserve"
   id="svg2"
   inkscape:version="0.48.2 r9819"
   sodipodi:docname="selectall.svg"><metadata
   id="metadata14"><rdf:RDF><cc:Work
       rdf:about=""><dc:format>image/svg+xml</dc:format><dc:type
         rdf:resource="http://purl.org/dc/dcmitype/StillImage" /></cc:Work></rdf:RDF></metadata><defs
   id="defs12">
	
	
<inkscape:perspective
   id="perspective2991"
   inkscape:persp3d-origin="50 : 33.333333 : 1"
   inkscape:vp_z="100 : 50 : 1"
   inkscape:vp_y="0 : 1000 : 0"
   inkscape:vp_x="0 : 50 : 1"
   sodipodi:type="inkscape:persp3d" /></defs><sodipodi:namedview
   pagecolor="#ffffff"
   bordercolor="#666666"
   borderopacity="1"
   objecttolerance="10"
   gridtolerance="10"
   guidetolerance="10"
   inkscape:pageopacity="0"
   inkscape:pageshadow="2"
   inkscape:window-width="1440"
   inkscape:window-height="852"
   id="namedview10"
   showgrid="false"
   inkscape:zoom="2.36"
   inkscape:cx="50"
   inkscape:cy="50.285625"
   inkscape:window-x="0"
   inkscape:window-y="0"
   inkscape:window-maximized="1"
   inkscape:current-layer="svg2" />
<g
   id="Captions"
   display="none">
</g>
<path
   inkscape:connector-curvature="0"
   id="path6"
   d="M 85.408,25.219 67.811,5.843 C 67.811,5.843 64.752,2 57.967,2 52.207,2 16.545,2 16.545,2 12.863,2 9,5.089 9,8.77 V 90.388 C 9,94.067 12.863,98 16.545,98 H 54 L 50,93 H 16.228 C 16.228,93 14,93 14,90.77 14,88.54 14,11.461 14,9.229 14,7 16.228,7 16.228,7 H 61.54 C 64.002,7 66,8.996 66,11.461 V 29 H 79.307 C 83.77,29 86,32.539 86,37 v 18 l 5,5 C 91,46.131 91,41.908 91,38.043 91,29.121 85.408,25.219 85.408,25.219 z"
   style="fill:#1e1e1e;fill-opacity:1" />
<path
   id="rect3942"
   transform="matrix(-0.70899313,-0.70521539,0.70899313,-0.70521539,0,0)"
   style="fill:#000000;fill-opacity:1;fill-rule:nonzero;stroke:none"
   d="m -116.64931,-20.366249 22.494326,0 c 1.06829,0 1.92832,1.779002 1.92832,3.988794 0,2.209791 -0.86003,3.988793 -1.92832,3.988793 l -22.494326,0 c -1.06829,0 -1.92832,-1.779002 -1.92832,-3.988793 0,-2.209792 0.86003,-3.988794 1.92832,-3.988794 z m 5.4408,3.03074 0,35.348577 c 0,1.678756 -1.779,3.030246 -3.98879,3.030246 -2.2098,0 -3.9888,-1.35149 -3.9888,-3.030246 l 0,-35.348577 c 0,-1.678756 1.779,-3.030246 3.9888,-3.030246 2.20979,0 3.98879,1.35149 3.98879,3.030246 z" /></svg>