<?xml version="1.0" encoding="UTF-8" standalone="no"?>
<svg
   xmlns:dc="http://purl.org/dc/elements/1.1/"
   xmlns:cc="http://creativecommons.org/ns#"
   xmlns:rdf="http://www.w3.org/1999/02/22-rdf-syntax-ns#"
   xmlns:svg="http://www.w3.org/2000/svg"
   xmlns="http://www.w3.org/2000/svg"
   xmlns:sodipodi="http://sodipodi.sourceforge.net/DTD/sodipodi-0.dtd"
   xmlns:inkscape="http://www.inkscape.org/namespaces/inkscape"
   version="1.1"
   x="0px"
   y="0px"
   width="100px"
   height="100px"
   viewBox="0 0 100 100"
   enable-background="new 0 0 100 100"
   xml:space="preserve"
   id="svg2"
   inkscape:version="0.48.2 r9819"
   sodipodi:docname="selectinvert.svg"><metadata
   id="metadata14"><rdf:RDF><cc:Work
       rdf:about=""><dc:format>image/svg+xml</dc:format><dc:type
         rdf:resource="http://purl.org/dc/dcmitype/StillImage" /></cc:Work></rdf:RDF></metadata><defs
   id="defs12">
	
	
</defs><sodipodi:namedview
   pagecolor="#ffffff"
   bordercolor="#666666"
   borderopacity="1"
   objecttolerance="10"
   gridtolerance="10"
   guidetolerance="10"
   inkscape:pageopacity="0"
   inkscape:pageshadow="2"
   inkscape:window-width="1440"
   inkscape:window-height="852"
   id="namedview10"
   showgrid="false"
   inkscape:zoom="2.36"
   inkscape:cx="-43.220339"
   inkscape:cy="50"
   inkscape:window-x="0"
   inkscape:window-y="0"
   inkscape:window-maximized="1"
   inkscape:current-layer="svg2" />
<g
   id="Captions"
   display="none">
</g>
<path
   inkscape:connector-curvature="0"
   style="fill:#1e1e1e;fill-opacity:1"
   id="path6"
   d="M 85.408,25.218 67.811,5.843 C 67.811,5.843 64.752,2 57.967,2 52.207,2 16.545,2 16.545,2 12.863,2 9,5.089 9,8.769 V 90.388 C 9,94.067 12.863,98 16.545,98 h 66.91 C 87.137,98 91,94.067 91,90.388 c 0,0 0,-45.933 0,-52.345 0,-8.921 -5.592,-12.825 -5.592,-12.825 z M 86,90.77 c 0,0 -0.006,2.23 -2.232,2.23 -2.226,0 -67.54,0 -67.54,0 C 16.228,93 14,93 14,90.77 14,88.54 14,11.461 14,9.229 14,7 16.228,7 16.228,7 H 61.54 C 64.002,7 66,8.997 66,11.46 V 29 H 79.307 C 83.77,29 86,32.539 86,37 v 53.77 z" /><polygon
   style="fill:#808080;fill-opacity:1"
   id="polygon8"
   points="46.671,45.963 41.047,51.586 37.222,47.759 34.672,64.336 50.612,61.147 46.786,57.323 56.988,47.123 56.978,47.113 57.369,46.722 53.542,42.896 69.48,39.709 66.931,56.285 63.105,52.461 58,58 81,87 81,34 61,34 61,12 20,12 " />
</svg>