<?xml version="1.0" encoding="UTF-8" standalone="no"?>
<svg xmlns:rdf="http://www.w3.org/1999/02/22-rdf-syntax-ns#" xmlns="http://www.w3.org/2000/svg" height="12" width="12" version="1.0" xmlns:cc="http://creativecommons.org/ns#" xmlns:dc="http://purl.org/dc/elements/1.1/">
 <metadata>
  <rdf:RDF>
   <cc:Work rdf:about="">
    <dc:format>image/svg+xml</dc:format>
    <dc:type rdf:resource="http://purl.org/dc/dcmitype/StillImage"/>
    <dc:title/>
    <dc:creator>
     <cc:Agent>
      <dc:title>Nils Maier</dc:title>
     </cc:Agent>
    </dc:creator>
    <dc:rights>
     <cc:Agent>
      <dc:title>Nils Maier</dc:title>
     </cc:Agent>
    </dc:rights>
    <cc:license rdf:resource="http://creativecommons.org/licenses/by-sa/3.0/"/>
   </cc:Work>
   <cc:License rdf:about="http://creativecommons.org/licenses/by-sa/3.0/">
    <cc:permits rdf:resource="http://creativecommons.org/ns#Reproduction"/>
    <cc:permits rdf:resource="http://creativecommons.org/ns#Distribution"/>
    <cc:requires rdf:resource="http://creativecommons.org/ns#Notice"/>
    <cc:requires rdf:resource="http://creativecommons.org/ns#Attribution"/>
    <cc:permits rdf:resource="http://creativecommons.org/ns#DerivativeWorks"/>
    <cc:requires rdf:resource="http://creativecommons.org/ns#ShareAlike"/>
   </cc:License>
  </rdf:RDF>
 </metadata>
 <g transform="translate(-83.248 -224.72)">
  <text xml:space="preserve" font-size="2.9366px" y="230.50514" x="79.949867" font-family="Kochi Gothic" fill="#000000"><tspan x="79.949867" y="230.50514"/></text>
  <path d="m176.92 98.333c0 34.199-27.724 61.923-61.923 61.923s-61.923-27.724-61.923-61.923 27.724-61.923 61.923-61.923 61.923 27.724 61.923 61.923z" fill-rule="evenodd" transform="matrix(.084358 0 0 .084358 79.547 222.43)" stroke="#003f00" stroke-width="18.405" fill="#079b00"/>
  <text xml:space="preserve" font-size="2.9366px" y="230.50514" x="79.949867" font-family="Kochi Gothic" fill="#000000"><tspan y="230.50514" x="79.949867"/></text>
  <text xml:space="preserve" font-size="2.9366px" y="230.50514" x="79.949867" font-family="Kochi Gothic" fill="#000000"><tspan x="79.949867" y="230.50514"/></text>
  <g fill="#fff" transform="matrix(.97142 0 0 .97142 81.752 223.16)">
   <rect transform="rotate(30)" height="7.1992" width="2.4847" y="-1.0402" x="10.461"/>
   <rect transform="matrix(.49998 -.86603 .86603 .49998 0 0)" height="5" width="2.485" y="7.2883" x="-6.1484"/>
  </g>
 </g>
</svg>
