<?xml version="1.0" encoding="UTF-8" standalone="no"?>
<!-- Created with Inkscape (http://www.inkscape.org/) -->

<svg
   xmlns:dc="http://purl.org/dc/elements/1.1/"
   xmlns:cc="http://creativecommons.org/ns#"
   xmlns:rdf="http://www.w3.org/1999/02/22-rdf-syntax-ns#"
   xmlns:svg="http://www.w3.org/2000/svg"
   xmlns="http://www.w3.org/2000/svg"
   xmlns:sodipodi="http://sodipodi.sourceforge.net/DTD/sodipodi-0.dtd"
   xmlns:inkscape="http://www.inkscape.org/namespaces/inkscape"
   version="1.1"
   viewBox="0 0 16 16"
   id="svg2"
   inkscape:version="0.48.4 r9939"
   width="100%"
   height="100%"
   sodipodi:docname="dtahover.svg"
   inkscape:export-filename="E:\firefox\dta-assets\toolbarbuttons\dtahover48.png"
   inkscape:export-xdpi="270"
   inkscape:export-ydpi="270">
  <sodipodi:namedview
     pagecolor="#ffffff"
     bordercolor="#666666"
     borderopacity="1"
     objecttolerance="10"
     gridtolerance="10"
     guidetolerance="10"
     inkscape:pageopacity="0"
     inkscape:pageshadow="2"
     inkscape:window-width="784"
     inkscape:window-height="862"
     id="namedview32"
     showgrid="false"
     inkscape:zoom="18.1875"
     inkscape:cx="-0.49484536"
     inkscape:cy="8"
     inkscape:window-x="0"
     inkscape:window-y="0"
     inkscape:window-maximized="0"
     inkscape:current-layer="svg2" />
  <defs
     id="defs4">
    <radialGradient
       id="radialGradient3642"
       gradientUnits="userSpaceOnUse"
       cy="17.413"
       cx="11.75"
       gradientTransform="matrix(0.42132009,0,0,1.1799812,3.1080658,-8.6414029)"
       r="10.752">
      <stop
         stop-color="#fffe99"
         offset="0"
         id="stop7" />
      <stop
         stop-color="#f69706"
         offset="0.2"
         id="stop9" />
      <stop
         stop-color="#136fa7"
         offset="1"
         id="stop11" />
    </radialGradient>
    <filter
       id="filter3802"
       height="1.48"
       width="1.48"
       color-interpolation-filters="sRGB"
       y="-0.23999999"
       x="-0.23999999">
      <feGaussianBlur
         stdDeviation="0.6937624"
         id="feGaussianBlur14" />
    </filter>
  </defs>
  <metadata
     id="metadata16">
    <rdf:RDF>
      <cc:Work
         rdf:about="">
        <dc:format>image/svg+xml</dc:format>
        <dc:type
           rdf:resource="http://purl.org/dc/dcmitype/StillImage" />
        <dc:title></dc:title>
        <dc:creator>
          <cc:Agent>
            <dc:title>Nils Maier</dc:title>
          </cc:Agent>
        </dc:creator>
        <dc:rights>
          <cc:Agent>
            <dc:title>Nils Maier, Stefano Verna</dc:title>
          </cc:Agent>
        </dc:rights>
      </cc:Work>
    </rdf:RDF>
  </metadata>
  <path
     d="m4.5207,0.95346,0,7.9457-2.5385,0,0,0.26829,2.9306,3.3021,2.6417,3.0338,0.99063,0,2.6829-3.0338,2.8274-3.2195,0-0.35085-2.7242,0,0-7.9457-6.8106,0z"
     stroke="#0a3b56"
     stroke-miterlimit="4"
     stroke-dasharray="none"
     stroke-width="0.64281517"
     fill="url(#radialGradient3642)"
     id="path18" />
  <g
     fill-rule="evenodd"
     transform="matrix(0.63881522,0,0,0.63881522,1.2454322,5.1303407)"
     id="g20">
    <g
       transform="translate(-2.0722772,0.58564357)"
       fill="#FFF"
       id="g22">
      <path
         d="m-3.649,16.792c0,1.9158-1.553,3.4688-3.4688,3.4688s-3.4688-1.553-3.4688-3.4688,1.553-3.4688,3.4688-3.4688,3.4688,1.553,3.4688,3.4688z"
         transform="matrix(1.2613946,0,0,1.2613946,26.727887,-22.660647)"
         filter="url(#filter3802)"
         stroke="#FFF"
         id="path24" />
      <path
         d="m-3.649,16.792c0,1.9158-1.553,3.4688-3.4688,3.4688s-3.4688-1.553-3.4688-3.4688,1.553-3.4688,3.4688-3.4688,3.4688,1.553,3.4688,3.4688z"
         transform="translate(24.867327,-18.271287)"
         stroke="#000"
         id="path26" />
    </g>
    <rect
       height="3.649"
       width="0.99109"
       y="-2.6054"
       x="15.141"
       fill="#1a1a1a"
       id="rect28" />
    <rect
       transform="matrix(0,-1,1,0,0,0)"
       height="3.649"
       width="0.99109"
       y="13.812"
       x="0.2854"
       fill="#1a1a1a"
       id="rect30" />
  </g>
</svg>
