<?xml version="1.0" encoding="UTF-8" standalone="no"?>
<!-- Created with Inkscape (http://www.inkscape.org/) -->

<svg
   xmlns:dc="http://purl.org/dc/elements/1.1/"
   xmlns:cc="http://creativecommons.org/ns#"
   xmlns:rdf="http://www.w3.org/1999/02/22-rdf-syntax-ns#"
   xmlns:svg="http://www.w3.org/2000/svg"
   xmlns="http://www.w3.org/2000/svg"
   xmlns:sodipodi="http://sodipodi.sourceforge.net/DTD/sodipodi-0.dtd"
   xmlns:inkscape="http://www.inkscape.org/namespaces/inkscape"
   version="1.1"
   viewBox="0 0 16 16"
   id="svg2"
   inkscape:version="0.48.0 r9654"
   width="100%"
   height="100%"
   sodipodi:docname="dtanormal.svg"
   inkscape:export-filename="E:\firefox\dta-res\toolbarbuttons-fx4\dtanormal60.png"
   inkscape:export-xdpi="337.5"
   inkscape:export-ydpi="337.5">
  <sodipodi:namedview
     pagecolor="#ffffff"
     bordercolor="#666666"
     borderopacity="1"
     objecttolerance="10"
     gridtolerance="10"
     guidetolerance="10"
     inkscape:pageopacity="0"
     inkscape:pageshadow="2"
     inkscape:window-width="640"
     inkscape:window-height="480"
     id="namedview32"
     showgrid="false"
     inkscape:zoom="18.1875"
     inkscape:cx="8"
     inkscape:cy="8"
     inkscape:window-x="0"
     inkscape:window-y="0"
     inkscape:window-maximized="0"
     inkscape:current-layer="svg2" />
  <defs
     id="defs4">
    <filter
       id="filter3802"
       height="1.48"
       width="1.48"
       color-interpolation-filters="sRGB"
       y="-0.23999999"
       x="-0.23999999">
      <feGaussianBlur
         stdDeviation="0.6937624"
         id="feGaussianBlur7" />
    </filter>
    <radialGradient
       id="radialGradient3014"
       gradientUnits="userSpaceOnUse"
       cx="11.75"
       cy="17.413"
       r="10.752"
       gradientTransform="matrix(0.40855986,0,0,1.1442439,3.2094504,-8.314529)">
      <stop
         stop-color="#fffe99"
         offset="0"
         id="stop10" />
      <stop
         stop-color="#e49218"
         offset="0.2"
         id="stop12" />
      <stop
         stop-color="#116597"
         offset="1"
         id="stop14" />
    </radialGradient>
  </defs>
  <metadata
     id="metadata16">
    <rdf:RDF>
      <cc:Work
         rdf:about="">
        <dc:format>image/svg+xml</dc:format>
        <dc:type
           rdf:resource="http://purl.org/dc/dcmitype/StillImage" />
        <dc:title></dc:title>
      </cc:Work>
    </rdf:RDF>
  </metadata>
  <path
     d="m4.5112,0.99852,0,7.916-2.529,0,0,0.26729,2.9197,3.2898,2.6318,3.0225,0.98693,0,2.6729-3.0225,2.8169-3.2075,0-0.34954-2.7141,0,0-7.916-6.7851,0z"
     stroke="#072739"
     stroke-dasharray="none"
     stroke-miterlimit="4"
     stroke-width="0.6404165"
     fill="url(#radialGradient3014)"
     id="path18" />
  <g
     fill-rule="evenodd"
     transform="matrix(0.63881522,0,0,0.63881522,1.2454322,5.1303407)"
     id="g20">
    <g
       transform="translate(-2.0722772,0.58564357)"
       fill="#FFF"
       id="g22">
      <path
         d="m-3.649,16.792c0,1.9158-1.553,3.4688-3.4688,3.4688s-3.4688-1.553-3.4688-3.4688,1.553-3.4688,3.4688-3.4688,3.4688,1.553,3.4688,3.4688z"
         transform="matrix(1.2613946,0,0,1.2613946,26.727887,-22.660647)"
         filter="url(#filter3802)"
         stroke="#FFF"
         id="path24" />
      <path
         d="m-3.649,16.792c0,1.9158-1.553,3.4688-3.4688,3.4688s-3.4688-1.553-3.4688-3.4688,1.553-3.4688,3.4688-3.4688,3.4688,1.553,3.4688,3.4688z"
         transform="translate(24.867327,-18.271287)"
         stroke="#000"
         id="path26" />
    </g>
    <rect
       height="3.649"
       width="0.99109"
       y="-2.6054"
       x="15.141"
       fill="#1a1a1a"
       id="rect28" />
    <rect
       transform="matrix(0,-1,1,0,0,0)"
       height="3.649"
       width="0.99109"
       y="13.812"
       x="0.2854"
       fill="#1a1a1a"
       id="rect30" />
  </g>
</svg>
