<?xml version="1.0" encoding="UTF-8" standalone="no"?>
<svg xmlns:rdf="http://www.w3.org/1999/02/22-rdf-syntax-ns#" xmlns="http://www.w3.org/2000/svg" height="128" width="128" version="1.1" xmlns:cc="http://creativecommons.org/ns#" xmlns:xlink="http://www.w3.org/1999/xlink" xmlns:dc="http://purl.org/dc/elements/1.1/">
 <defs>
  <radialGradient id="a" gradientUnits="userSpaceOnUse" cy="17.413" cx="11.75" gradientTransform="matrix(2.339 -2.339 6.5509 6.5509 7.4835 -171.24)" r="10.752">
   <stop stop-color="#fffe99" offset="0"/>
   <stop stop-color="#f69706" offset=".2"/>
   <stop stop-color="#136fa7" offset="1"/>
  </radialGradient>
 </defs>
 <metadata>
  <rdf:RDF>
   <cc:Work rdf:about="">
    <dc:format>image/svg+xml</dc:format>
    <dc:type rdf:resource="http://purl.org/dc/dcmitype/StillImage"/>
    <dc:title/>
    <dc:creator>
     <cc:Agent>
      <dc:title>Nils Maier</dc:title>
     </cc:Agent>
    </dc:creator>
    <dc:rights>
     <cc:Agent>
      <dc:title>Nils Maier, Stefano Verna</dc:title>
     </cc:Agent>
    </dc:rights>
   </cc:Work>
  </rdf:RDF>
 </metadata>
 <g transform="translate(-61.457 172.02)">
  <path stroke="#0a3b56" stroke-width="5" d="m74.522-119.89 38.183 38.183-11.924 11.924c-5.2461 3.898-0.67925 3.6583-0.67925 3.6583l34.602 2.0624 27.753 1.9175c3.4575 0.69423 4.1641-0.14973 6.4989-2.4844 2.7377-2.1289 2.7335-3.1218 2.5351-6.3536l-1.7271-28.14-2.1768-33.571c-0.19286-5.3019-3.9456 0.05-3.9456 0.05l-13.126 13.126-38.022-38.022c-6.0123-6.92-6.9996-5.5403-12.094-0.0845l-26.044 26.045c-5.4651 5.1038-5.6766 5.8441 0.16802 11.689z" fill="url(#a)"/>
 </g>
</svg>
