<?xml version="1.0" encoding="UTF-8" standalone="no"?>
<svg xmlns:rdf="http://www.w3.org/1999/02/22-rdf-syntax-ns#" xmlns="http://www.w3.org/2000/svg" height="16" width="16" version="1.1" xmlns:cc="http://creativecommons.org/ns#" xmlns:xlink="http://www.w3.org/1999/xlink" xmlns:dc="http://purl.org/dc/elements/1.1/">
 <defs>
  <linearGradient id="c" y2="7.3054" gradientUnits="userSpaceOnUse" x2="13.59" y1="7.3054" x1=".91642">
   <stop stop-color="#fddcd8" offset="0"/>
   <stop stop-color="#f4a29e" offset="1"/>
  </linearGradient>
  <linearGradient id="b" y2="12.785" gradientUnits="userSpaceOnUse" x2="13.163" y1="2.8226" x1="3.3257">
   <stop stop-color="#e06a6b" stop-opacity=".6257" offset="0"/>
   <stop stop-color="#963d23" stop-opacity=".84358" offset="1"/>
  </linearGradient>
  <radialGradient id="a" gradientUnits="userSpaceOnUse" cy="5.0175" cx="12.337" gradientTransform="matrix(-.80429 -.99646 .90141 -.74944 14.395 25.017)" r="4.0545">
   <stop stop-color="#bf0000" stop-opacity=".61111" offset="0"/>
   <stop stop-color="#f00" stop-opacity=".24444" offset="1"/>
  </radialGradient>
 </defs>
 <metadata>
  <rdf:RDF>
   <cc:Work rdf:about="">
    <dc:format>image/svg+xml</dc:format>
    <dc:type rdf:resource="http://purl.org/dc/dcmitype/StillImage"/>
    <dc:title/>
    <dc:creator>
     <cc:Agent>
      <dc:title>Nils Maier</dc:title>
     </cc:Agent>
    </dc:creator>
    <dc:rights>
     <cc:Agent>
      <dc:title>Nils Maier</dc:title>
     </cc:Agent>
    </dc:rights>
    <cc:license rdf:resource="http://creativecommons.org/licenses/by-sa/3.0/"/>
   </cc:Work>
   <cc:License rdf:about="http://creativecommons.org/licenses/by-sa/3.0/">
    <cc:permits rdf:resource="http://creativecommons.org/ns#Reproduction"/>
    <cc:permits rdf:resource="http://creativecommons.org/ns#Distribution"/>
    <cc:requires rdf:resource="http://creativecommons.org/ns#Notice"/>
    <cc:requires rdf:resource="http://creativecommons.org/ns#Attribution"/>
    <cc:permits rdf:resource="http://creativecommons.org/ns#DerivativeWorks"/>
    <cc:requires rdf:resource="http://creativecommons.org/ns#ShareAlike"/>
   </cc:License>
  </rdf:RDF>
 </metadata>
 <g transform="translate(22.66 4.55)">
  <rect stroke-opacity=".56031" height="12.028" width="10.677" stroke="#3f3f3f" y="-3.8668" x="-22.029" fill="#f1f1f1"/>
  <g fill="#c6c6c6">
   <rect y="-2.2" width="7.298" height="1.1262" x="-20.543"/>
   <rect y="4.6475" width="7.298" height="1.1262" x="-20.543"/>
   <rect y="2.9807" width="4.9689" height="1.1262" x="-20.543"/>
   <rect y="1.3139" width="7.298" height="1.1262" x="-20.543"/>
   <rect y="-.44307" width="5.9393" height="1.1262" x="-20.543"/>
  </g>
 </g>
 <g transform="translate(26.714 7.3881)">
  <rect stroke-opacity=".56031" height="12.028" width="10.677" stroke="#939393" y="-3.8668" x="-22.029" fill="#fafafa"/>
  <g fill="#c6c6c6">
   <rect y="-2.2" width="7.298" height="1.1262" x="-20.543"/>
   <rect y="4.6475" width="7.298" height="1.1262" x="-20.543"/>
   <rect y="2.9807" width="4.9689" height="1.1262" x="-20.543"/>
   <rect y="1.3139" width="7.298" height="1.1262" x="-20.543"/>
   <rect y="-.44307" width="5.9393" height="1.1262" x="-20.543"/>
  </g>
 </g>
 <g transform="matrix(.51754 0 0 .51754 7.5418 7.5672)">
  <path d="m15.047 8.1389a7.0953 7.0953 0 1 1 -14.191 0 7.0953 7.0953 0 1 1 14.191 0z" transform="matrix(1.0857 0 0 1.0857 -.70406 -.85529)" fill="url(#b)"/>
  <path d="m13.064 7.3054a5.8114 5.8114 0 1 1 -11.623 0 5.8114 5.8114 0 1 1 11.623 0z" transform="matrix(1.1425 0 0 1.1425 -.31275 -.32022)" fill="url(#c)"/>
  <path d="m12.208 8.274a4.0545 4.0319 0 1 1 -8.1089 0 4.0545 4.0319 0 1 1 8.1089 0z" transform="matrix(1.392 0 0 1.3716 -3.3539 -3.2815)" fill="url(#a)"/>
  <g transform="translate(.49567 -.21764)" fill="#fff">
   <rect y="-3.4808" width="2" height="8" transform="rotate(45)" x="10.117"/>
   <rect y="7.1171" width="2" height="8" transform="rotate(-45)" x="-1.5192"/>
  </g>
 </g>
</svg>
