<?xml version="1.0" encoding="UTF-8" standalone="no"?>
<svg xmlns:rdf="http://www.w3.org/1999/02/22-rdf-syntax-ns#" xmlns="http://www.w3.org/2000/svg" height="16px" width="16px" version="1.1" xmlns:cc="http://creativecommons.org/ns#" xmlns:xlink="http://www.w3.org/1999/xlink" xmlns:dc="http://purl.org/dc/elements/1.1/">
 <defs>
  <linearGradient id="a">
   <stop offset="0"/>
   <stop stop-color="#494949" offset=".5"/>
   <stop stop-color="#939393" stop-opacity="0" offset="1"/>
  </linearGradient>
  <linearGradient id="k" y2="7.3054" gradientUnits="userSpaceOnUse" y1="7.3054" x2="13.59" x1=".91642">
   <stop stop-color="#fddcd8" offset="0"/>
   <stop stop-color="#f4a29e" offset="1"/>
  </linearGradient>
  <linearGradient id="l" y2="12.785" gradientUnits="userSpaceOnUse" y1="2.8226" x2="13.163" x1="3.3257">
   <stop stop-color="#e06a6b" stop-opacity=".6257" offset="0"/>
   <stop stop-color="#963d23" stop-opacity=".84358" offset="1"/>
  </linearGradient>
  <radialGradient id="m" gradientUnits="userSpaceOnUse" cy="5.0175" cx="12.337" gradientTransform="matrix(-.80429 -.99646 .90141 -.74944 14.395 25.017)" r="4.0545">
   <stop stop-color="#bf0000" stop-opacity=".61111" offset="0"/>
   <stop stop-color="#f00" stop-opacity=".24444" offset="1"/>
  </radialGradient>
  <linearGradient id="h" x1="-22.529" gradientUnits="userSpaceOnUse" y1="-8.6813" gradientTransform="matrix(1.1694 0 0 1.1694 26.522 5.2448)" x2="-15.304" y2="5.5758">
   <stop stop-color="#d7d7d7" offset="0"/>
   <stop stop-color="#f6f6f6" stop-opacity=".87151" offset=".5"/>
   <stop stop-color="#fff" offset="1"/>
  </linearGradient>
  <linearGradient id="i" x1="-22.529" xlink:href="#a" gradientUnits="userSpaceOnUse" y1="-8.6813" gradientTransform="matrix(1.1694 0 0 1.1694 26.522 5.2448)" x2="-15.304" y2="5.5758"/>
  <linearGradient id="j" x1=".38165" xlink:href="#a" gradientUnits="userSpaceOnUse" x2="9.0964" y1="-2.3061" y2="11.997"/>
 </defs>
 <metadata>
  <rdf:RDF>
   <cc:Work rdf:about="">
    <dc:format>image/svg+xml</dc:format>
    <dc:type rdf:resource="http://purl.org/dc/dcmitype/StillImage"/>
    <dc:title/>
    <dc:rights>
     <cc:Agent>
      <dc:title>Nils Maier</dc:title>
     </cc:Agent>
    </dc:rights>
    <dc:creator>
     <cc:Agent>
      <dc:title>Nils Maier</dc:title>
     </cc:Agent>
    </dc:creator>
    <cc:license rdf:resource="http://creativecommons.org/licenses/by-sa/3.0/"/>
   </cc:Work>
   <cc:License rdf:about="http://creativecommons.org/licenses/by-sa/3.0/">
    <cc:permits rdf:resource="http://creativecommons.org/ns#Reproduction"/>
    <cc:permits rdf:resource="http://creativecommons.org/ns#Distribution"/>
    <cc:requires rdf:resource="http://creativecommons.org/ns#Notice"/>
    <cc:requires rdf:resource="http://creativecommons.org/ns#Attribution"/>
    <cc:permits rdf:resource="http://creativecommons.org/ns#DerivativeWorks"/>
    <cc:requires rdf:resource="http://creativecommons.org/ns#ShareAlike"/>
   </cc:License>
  </rdf:RDF>
 </metadata>
 <rect stroke-opacity=".56031" height="14.066" width="12.486" stroke="url(#i)" y=".72284" x=".76046" stroke-width="1.1694" fill="url(#h)"/>
 <g fill="url(#j)">
  <rect y="2.6721" width="8.5346" x="2.499" height="1.3171"/>
  <rect y="10.68" width="8.5346" x="2.499" height="1.3171"/>
  <rect y="8.7306" width="5.8108" x="2.499" height="1.3171"/>
  <rect y="6.7813" width="8.5346" x="2.499" height="1.3171"/>
  <rect y="4.7267" width="6.9457" x="2.499" height="1.3171"/>
 </g>
 <g transform="matrix(.51754 0 0 .51754 7.5418 7.5672)">
  <path fill="url(#l)" transform="matrix(1.0857 0 0 1.0857 -.70406 -.85529)" d="m15.047 8.1389c0 3.9186-3.1767 7.0953-7.0953 7.0953s-7.0953-3.1767-7.0953-7.0953 3.1767-7.0953 7.0953-7.0953 7.0953 3.1767 7.0953 7.0953z"/>
  <path fill="url(#k)" transform="matrix(1.1425 0 0 1.1425 -.31275 -.32022)" d="m13.064 7.3054c0 3.2095-2.6018 5.8114-5.8114 5.8114-3.2095 0-5.8114-2.6018-5.8114-5.8114 0-3.2095 2.6018-5.8114 5.8114-5.8114 3.2095 0 5.8114 2.6018 5.8114 5.8114z"/>
  <path fill="url(#m)" transform="matrix(1.392 0 0 1.3716 -3.3539 -3.2815)" d="m12.208 8.274c0 2.2268-1.8152 4.0319-4.0545 4.0319-2.2392 0-4.0545-1.8052-4.0545-4.0319 0-2.2268 1.8152-4.0319 4.0545-4.0319 2.2392 0 4.0545 1.8052 4.0545 4.0319z"/>
  <g transform="translate(.49567 -.21764)" fill="#fff">
   <rect y="-3.4808" width="2" x="10.117" transform="rotate(45)" height="8"/>
   <rect y="7.1171" width="2" x="-1.5192" transform="rotate(-45)" height="8"/>
  </g>
 </g>
</svg>
