<?xml version="1.0" encoding="UTF-8" standalone="no"?>
<svg xmlns:rdf="http://www.w3.org/1999/02/22-rdf-syntax-ns#" xmlns="http://www.w3.org/2000/svg" height="12" width="12" version="1.1" xmlns:cc="http://creativecommons.org/ns#" xmlns:dc="http://purl.org/dc/elements/1.1/">
 <defs>
  <linearGradient id="c" y2="7.3054" gradientUnits="userSpaceOnUse" y1="7.3054" x2="13.59" x1=".91642">
   <stop stop-color="#fee1e1" offset="0"/>
   <stop stop-color="#f16262" offset="1"/>
  </linearGradient>
  <linearGradient id="d" y2="12.785" gradientUnits="userSpaceOnUse" y1="2.8226" x2="13.163" x1="3.3257">
   <stop stop-color="#e46c6c" offset="0"/>
   <stop stop-color="#d60000" stop-opacity=".96471" offset="1"/>
  </linearGradient>
 </defs>
 <metadata>
  <rdf:RDF>
   <cc:Work rdf:about="">
    <dc:format>image/svg+xml</dc:format>
    <dc:type rdf:resource="http://purl.org/dc/dcmitype/StillImage"/>
    <dc:title/>
    <dc:creator>
     <cc:Agent>
      <dc:title>Nils Maier</dc:title>
     </cc:Agent>
    </dc:creator>
    <dc:rights>
     <cc:Agent>
      <dc:title>Nils Maier</dc:title>
     </cc:Agent>
    </dc:rights>
    <cc:license rdf:resource="http://creativecommons.org/licenses/by-sa/3.0/"/>
   </cc:Work>
   <cc:License rdf:about="http://creativecommons.org/licenses/by-sa/3.0/">
    <cc:permits rdf:resource="http://creativecommons.org/ns#Reproduction"/>
    <cc:permits rdf:resource="http://creativecommons.org/ns#Distribution"/>
    <cc:requires rdf:resource="http://creativecommons.org/ns#Notice"/>
    <cc:requires rdf:resource="http://creativecommons.org/ns#Attribution"/>
    <cc:permits rdf:resource="http://creativecommons.org/ns#DerivativeWorks"/>
    <cc:requires rdf:resource="http://creativecommons.org/ns#ShareAlike"/>
   </cc:License>
  </rdf:RDF>
 </metadata>
 <g transform="translate(0,-4)">
  <path fill="url(#d)" transform="matrix(.81270 0 0 .81270 -.47037 3.3039)" d="m15.047 8.1389a7.0953 7.0953 0 1 1 -14.191 0 7.0953 7.0953 0 1 1 14.191 0z"/>
  <path fill="url(#c)" transform="matrix(.85520 0 0 .85520 -.17746 3.7044)" d="m13.064 7.3054a5.8114 5.8114 0 1 1 -11.623 0 5.8114 5.8114 0 1 1 11.623 0z"/>
  <path fill="#fff" transform="matrix(.98742 0 0 .97291 -1.9941 1.9472)" d="m12.208 8.274a4.0545 4.0319 0 1 1 -8.1089 0 4.0545 4.0319 0 1 1 8.1089 0z"/>
  <rect ry=".011922" height=".023845" width=".14307" y="7.742" x="5.5409" fill="#4a833e"/>
 </g>
</svg>
