<?xml version="1.0" encoding="UTF-8" standalone="no"?>
<svg xmlns:rdf="http://www.w3.org/1999/02/22-rdf-syntax-ns#" xmlns="http://www.w3.org/2000/svg" height="16" width="16" version="1.1" xmlns:cc="http://creativecommons.org/ns#" xmlns:xlink="http://www.w3.org/1999/xlink" xmlns:dc="http://purl.org/dc/elements/1.1/">
 <defs>
  <linearGradient id="a" y2="39.685" gradientUnits="userSpaceOnUse" x2="34.534" gradientTransform="matrix(.42324 0 0 .42324 -2.0316 -2.1351)" y1="12.285" x1="14.463">
   <stop stop-color="#ababab" offset="0"/>
   <stop stop-color="#c6c6c6" offset=".25"/>
   <stop stop-color="#bababa" offset=".5"/>
   <stop stop-color="#7e7e7e" offset=".75"/>
   <stop stop-color="#ababab" offset="1"/>
  </linearGradient>
 </defs>
 <metadata>
  <rdf:RDF>
   <cc:Work rdf:about="">
    <dc:format>image/svg+xml</dc:format>
    <dc:type rdf:resource="http://purl.org/dc/dcmitype/StillImage"/>
    <dc:creator>
     <cc:Agent>
      <dc:title>Jakub Steiner</dc:title>
     </cc:Agent>
    </dc:creator>
    <dc:source>http://jimmac.musichall.cz</dc:source>
    <cc:license rdf:resource="http://creativecommons.org/licenses/publicdomain/"/>
    <dc:title/>
    <dc:subject>
     <rdf:Bag>
      <rdf:li>emblem</rdf:li>
      <rdf:li>system</rdf:li>
      <rdf:li>library</rdf:li>
      <rdf:li>crucial</rdf:li>
      <rdf:li>base</rdf:li>
     </rdf:Bag>
    </dc:subject>
   </cc:Work>
   <cc:License rdf:about="http://creativecommons.org/licenses/publicdomain/">
    <cc:permits rdf:resource="http://creativecommons.org/ns#Reproduction"/>
    <cc:permits rdf:resource="http://creativecommons.org/ns#Distribution"/>
    <cc:permits rdf:resource="http://creativecommons.org/ns#DerivativeWorks"/>
   </cc:License>
  </rdf:RDF>
 </metadata>
 <path style="color:#000000" d="m7.6055 0.48149c-0.1585 0.01085-0.3128 0.03542-0.4686 0.05325h-0.01065l-0.3728 2.0342c-0.6076 0.1384-1.1792 0.3732-1.6934 0.6923l-1.672-1.2035c-0.452 0.3509-0.8633 0.7602-1.2248 1.2035l1.1608 1.6934c-0.3524 0.5386-0.6175 1.1537-0.7668 1.7998-0.0000256 0.00307-0.0000208 0.010118 0 0.01065l-2.0233 0.3197c-0.036994 0.30217-0.053251 0.61444-0.053251 0.92658 2e-8 0.25536 0.007051 0.50732 0.03195 0.75618l2.0235 0.3621c0.14391 0.7027 0.41731 1.359 0.79878 1.9383l-1.2035 1.6505c0.34466 0.42788 0.74258 0.81745 1.1715 1.1608l1.704-1.171c0.59552 0.3799 1.2603 0.6463 1.9809 0.77744l0.3195 2.0129c0.22704 0.02067 0.45985 0.0213 0.69224 0.0213 0.32809-0.000001 0.64146-0.01243 0.95851-0.05325l0.3834-2.055c0.68365-0.17006 1.3264-0.46554 1.8846-0.86258l1.6401 1.1928c0.42532-0.36186 0.81428-0.77782 1.1502-1.2248l-1.192-1.725c0.323-0.558 0.546-1.1736 0.66-1.832l2.0129-0.3195c0.01765-0.21005 0.0213-0.41377 0.0213-0.62837 0-0.37291-0.04334-0.73856-0.09585-1.097l-2.045-0.3728c-0.16-0.5912-0.423-1.1434-0.755-1.6396l1.203-1.6509c-0.373-0.4562-0.799-0.8776-1.268-1.2354l-1.736 1.1928c-0.498-0.2951-1.0353-0.5215-1.618-0.6497l-0.3197-2.0235c-0.2907-0.0342-0.5841-0.05324-0.8841-0.05324-0.081068 0-0.1645-0.002551-0.24495 0-0.039219 0.001244-0.078034-0.002282-0.11715 0-0.010596 0.00061788-0.021375-0.00072353-0.03195 0zm0.2769 5.1761c0.03891-0.00198 0.077754 0 0.11715 0 1.2607 0 2.2898 1.0291 2.2898 2.2898 0.000001 1.2607-1.0291 2.2791-2.2898 2.2791s-2.2791-1.0185-2.2791-2.2791c4e-7 -1.2213 0.95582-2.2286 2.162-2.2898z" stroke="#4e4e4e" stroke-width=".96126" fill="url(#a)"/>
 <path opacity=".64773" style="color:#000000" d="m10.632 7.9425c0 1.453-1.1779 2.6309-2.6309 2.6309s-2.6309-1.1779-2.6309-2.6309 1.1779-2.6309 2.6309-2.6309 2.6309 1.1779 2.6309 2.6309z" stroke="#fff" stroke-width=".5" fill="none"/>
 <path opacity=".63522" style="color:#000000" d="m7.3697 0.8841-0.2992 1.9695c-0.5695 0.1297-1.6172 0.5263-2.0991 0.8254l-1.5922-1.1884c-0.4238 0.3289-0.4529 0.3512-0.7917 0.7667l1.1513 1.7074c-0.33038 0.5049-0.72721 1.4046-0.8697 2.0476l-2.0174 0.34007c-0.034677 0.28323-0.018012 0.88943 0.005327 1.1227l1.9271 0.3471c0.13489 0.65867 0.63969 1.7189 0.99726 2.2619l-1.2186 1.61c0.32306 0.40106 0.38773 0.43776 0.78978 0.75965l1.6295-1.1938c0.5582 0.3561 1.6662 0.78927 2.3416 0.9122l0.26743 1.9447c0.21281 0.01937 0.80072 0.07371 1.0979 0.03545l0.29929-2.0244c0.64129-0.1596 1.7494-0.61447 2.2726-0.98659l1.6277 1.176c0.39867-0.33918 0.40225-0.39029 0.71712-0.80924l-1.207-1.714c0.30279-0.52293 0.69429-1.5456 0.80062-2.1627l1.9748-0.32767c0.01654-0.19689 0.01735-0.74595-0.03187-1.0819l-2.012-0.348c-0.15-0.5545-0.665-1.554-0.978-2.0192l1.279-1.6099c-0.349-0.4276-0.479-0.4863-0.919-0.8216l-1.6846 1.2062c-0.467-0.2767-1.3992-0.6983-1.9459-0.8184l-0.2975-1.927c-0.27258-0.032065-1.059-0.017826-1.2148 0z" stroke="#fff" stroke-width=".34080" fill="none"/>
</svg>
