<?xml version="1.0" encoding="UTF-8" standalone="no"?>
<svg xmlns:rdf="http://www.w3.org/1999/02/22-rdf-syntax-ns#" xmlns="http://www.w3.org/2000/svg" height="16px" width="16px" version="1.1" xmlns:cc="http://creativecommons.org/ns#" xmlns:dc="http://purl.org/dc/elements/1.1/">
 <defs>
  <linearGradient id="c" y2="7.3054" gradientUnits="userSpaceOnUse" x2="13.59" y1="7.3054" x1=".91642">
   <stop stop-color="#e0e9f4" offset="0"/>
   <stop stop-color="#87a6cc" offset="1"/>
  </linearGradient>
  <linearGradient id="b" y2="12.785" gradientUnits="userSpaceOnUse" x2="13.163" y1="2.8226" x1="3.3257">
   <stop stop-color="#478dcf" stop-opacity=".63128" offset="0"/>
   <stop stop-color="#2e5172" stop-opacity=".89944" offset="1"/>
  </linearGradient>
  <radialGradient id="a" gradientUnits="userSpaceOnUse" cy="5.0175" cx="12.337" gradientTransform="matrix(-.80429 -.99646 .90141 -.74944 14.395 25.017)" r="4.0545">
   <stop stop-color="#305478" offset="0"/>
   <stop stop-color="#2871bc" stop-opacity=".18824" offset="1"/>
  </radialGradient>
 </defs>
 <metadata>
  <rdf:RDF>
   <cc:Work rdf:about="">
    <dc:format>image/svg+xml</dc:format>
    <dc:type rdf:resource="http://purl.org/dc/dcmitype/StillImage"/>
    <dc:title/>
    <dc:creator>
     <cc:Agent>
      <dc:title>Nils Maier</dc:title>
     </cc:Agent>
    </dc:creator>
    <dc:rights>
     <cc:Agent>
      <dc:title>Nils Maier</dc:title>
     </cc:Agent>
    </dc:rights>
    <cc:license rdf:resource="http://creativecommons.org/licenses/by-sa/3.0/"/>
   </cc:Work>
   <cc:License rdf:about="http://creativecommons.org/licenses/by-sa/3.0/">
    <cc:permits rdf:resource="http://creativecommons.org/ns#Reproduction"/>
    <cc:permits rdf:resource="http://creativecommons.org/ns#Distribution"/>
    <cc:requires rdf:resource="http://creativecommons.org/ns#Notice"/>
    <cc:requires rdf:resource="http://creativecommons.org/ns#Attribution"/>
    <cc:permits rdf:resource="http://creativecommons.org/ns#DerivativeWorks"/>
    <cc:requires rdf:resource="http://creativecommons.org/ns#ShareAlike"/>
   </cc:License>
  </rdf:RDF>
 </metadata>
 <path d="m15.047 8.1389c0 3.9186-3.1767 7.0953-7.0953 7.0953s-7.0953-3.1767-7.0953-7.0953 3.1767-7.0953 7.0953-7.0953 7.0953 3.1767 7.0953 7.0953z" transform="matrix(1.0857 0 0 1.0857 -.70406 -.85529)" fill="url(#b)"/>
 <path d="m13.064 7.3054c0 3.2095-2.6018 5.8114-5.8114 5.8114-3.2095 0-5.8114-2.6018-5.8114-5.8114 0-3.2095 2.6018-5.8114 5.8114-5.8114 3.2095 0 5.8114 2.6018 5.8114 5.8114z" transform="matrix(1.1425 0 0 1.1425 -.31275 -.32022)" fill="url(#c)"/>
 <path d="m12.208 8.274c0 2.2268-1.8152 4.0319-4.0545 4.0319-2.2392 0-4.0545-1.8052-4.0545-4.0319 0-2.2268 1.8152-4.0319 4.0545-4.0319 2.2392 0 4.0545 1.8052 4.0545 4.0319z" transform="matrix(1.392 0 0 1.3716 -3.3539 -3.2815)" fill="url(#a)"/>
 <g transform="matrix(1.1252 0 0 .99906 -.55581 .19121)" fill="#fff">
  <rect y="4.819" width="2" height="6" x="4.9375"/>
  <rect y="4.8133" width="2" height="6" x="8.2697"/>
 </g>
</svg>
