<?xml version="1.0" encoding="UTF-8" standalone="no"?>
<svg xmlns:rdf="http://www.w3.org/1999/02/22-rdf-syntax-ns#" xmlns="http://www.w3.org/2000/svg" height="16" width="16" version="1.1" xmlns:cc="http://creativecommons.org/ns#" xmlns:xlink="http://www.w3.org/1999/xlink" xmlns:dc="http://purl.org/dc/elements/1.1/">
 <defs>
  <radialGradient id="c" gradientUnits="userSpaceOnUse" cy="6.8283" cx="8.7468" r="29.89">
   <stop stop-color="#9497b3" offset="0"/>
   <stop stop-color="#4c4059" offset="1"/>
  </radialGradient>
  <radialGradient id="b" gradientUnits="userSpaceOnUse" cy="10.045" cx="11.902" r="29.293">
   <stop stop-color="#fffffd" offset="0"/>
   <stop stop-color="#cbcbc9" offset="1"/>
  </radialGradient>
  <linearGradient id="e" y2="25.884" gradientUnits="userSpaceOnUse" x2="22.218" y1="7.7893" x1="6.3422">
   <stop stop-color="#a0a0a0" offset="0"/>
   <stop stop-color="#fff" offset="1"/>
  </linearGradient>
  <radialGradient id="a" gradientUnits="userSpaceOnUse" cy="10.973" cx="23.375" gradientTransform="matrix(3.6304 0 0 3.7421 -61.486 -29.186)" r="3.3478">
   <stop stop-color="#c4a000" offset="0"/>
   <stop stop-color="#c4a000" stop-opacity="0" offset="1"/>
  </radialGradient>
  <linearGradient id="d" y2="5.2846" gradientUnits="userSpaceOnUse" x2="20.33" y1="4.2571" x1="19.667">
   <stop stop-color="#c4a000" offset="0"/>
   <stop stop-color="#c4a000" stop-opacity="0" offset="1"/>
  </linearGradient>
  <linearGradient id="f" y2="52.091" gradientUnits="userSpaceOnUse" x2="9.8855" gradientTransform="matrix(1.144 0 0 .35511 -12.405 24.565)" y1="37.197" x1="8.9156">
   <stop stop-color="#9aa29a" offset="0"/>
   <stop stop-color="#b5beb5" offset="1"/>
  </linearGradient>
 </defs>
 <metadata>
  <rdf:RDF>
   <cc:Work rdf:about="">
    <dc:format>image/svg+xml</dc:format>
    <dc:type rdf:resource="http://purl.org/dc/dcmitype/StillImage"/>
    <dc:creator>
     <cc:Agent>
      <dc:title>Jakub Steiner</dc:title>
     </cc:Agent>
    </dc:creator>
    <dc:source>http://jimmac.musichall.cz</dc:source>
    <cc:license rdf:resource="http://creativecommons.org/licenses/publicdomain/"/>
    <dc:title/>
    <dc:subject>
     <rdf:Bag>
      <rdf:li>appointment</rdf:li>
      <rdf:li>new</rdf:li>
      <rdf:li>meeting</rdf:li>
      <rdf:li>rvsp</rdf:li>
     </rdf:Bag>
    </dc:subject>
   </cc:Work>
   <cc:License rdf:about="http://creativecommons.org/licenses/publicdomain/">
    <cc:permits rdf:resource="http://creativecommons.org/ns#Reproduction"/>
    <cc:permits rdf:resource="http://creativecommons.org/ns#Distribution"/>
    <cc:permits rdf:resource="http://creativecommons.org/ns#DerivativeWorks"/>
   </cc:License>
  </rdf:RDF>
 </metadata>
 <g transform="translate(0,-32)">
  <path style="color:#000000" d="m6.0795 32.255-5.2592 6.113 0.461 0.455 4.7982-6.568z" fill-rule="evenodd" fill="url(#f)"/>
  <path d="m6.0354 32.222-4.69 6.5035 0.67 0.59155 4.02-7.0951z" fill-rule="evenodd" fill="#fefefe"/>
  <path stroke-linejoin="round" d="m31.161 16.911a14.911 14.911 0 1 1 -29.821 0 14.911 14.911 0 1 1 29.821 0z" fill-rule="evenodd" transform="matrix(.52425 0 0 .52425 -.51901 31.135)" stroke="#605773" stroke-linecap="round" stroke-width=".69855" fill="url(#c)"/>
  <path stroke-linejoin="round" d="m31.161 16.911a14.911 14.911 0 1 1 -29.821 0 14.911 14.911 0 1 1 29.821 0z" fill-rule="evenodd" transform="matrix(.42621 0 0 .42621 1.0394 32.758)" stroke="url(#e)" stroke-linecap="round" stroke-width=".71140" fill="url(#b)"/>
  <path style="color:#000000" d="m16.679 6.6387a8.5 8.5 0 0 1 6.654 -3.2636l0.042 8.4999z" fill-rule="evenodd" transform="matrix(.64818 0 0 .64818 -6.9621 32.33)" stroke="url(#d)" stroke-width=".56499" fill="url(#a)"/>
  <path stroke-linejoin="round" d="m16.406 17.281a1.2188 1.2188 0 1 1 -2.4375 0 1.2188 1.2188 0 1 1 2.4375 0z" fill-rule="evenodd" transform="matrix(.75927 0 0 .75927 -3.4047 26.93)" stroke="#000" stroke-linecap="round" stroke-width=".48232" fill="#f3f3f3"/>
  <path d="m7.3938 39.328-3.3035-2.775" stroke="#000" stroke-linecap="round" stroke-width=".36621" fill="none"/>
  <path d="m6.3802 42.645 1.084-1.6455" stroke="#000" stroke-linecap="round" stroke-width=".73243" fill="none"/>
  <path d="m17.324 7.6932a0.61872 0.61872 0 1 1 -1.2374 0 0.61872 0.61872 0 1 1 1.2374 0z" fill-rule="evenodd" transform="matrix(1.0069 0 0 1.0069 -8.8944 27.196)" fill="#b6b9b1"/>
  <path d="m17.324 7.6932a0.61872 0.61872 0 1 1 -1.2374 0 0.61872 0.61872 0 1 1 1.2374 0z" fill-rule="evenodd" transform="matrix(1.0069 0 0 1.0069 -8.8944 37.164)" fill="#b6b9b1"/>
  <path d="m17.324 7.6932a0.61872 0.61872 0 1 1 -1.2374 0 0.61872 0.61872 0 1 1 1.2374 0z" fill-rule="evenodd" transform="matrix(1.0069 0 0 1.0069 -13.878 32.18)" fill="#b6b9b1"/>
  <path d="m17.324 7.6932a0.61872 0.61872 0 1 1 -1.2374 0 0.61872 0.61872 0 1 1 1.2374 0z" fill-rule="evenodd" transform="matrix(1.0069 0 0 1.0069 -3.9105 32.18)" fill="#b6b9b1"/>
 </g>
</svg>
